<svg width="64" height="64" viewBox="0 0 64 64" fill="none" xmlns="http://www.w3.org/2000/svg">
<path d="M39.333 26.6667C41.8663 26.6667 43.9997 28.8 43.9997 31.3333V44C43.9997 50.6667 38.6663 56 31.9997 56C25.333 56 19.9997 50.6667 19.9997 44V31.3333C19.9997 28.8 22.133 26.6667 24.6663 26.6667H39.333ZM39.333 30.6667H24.6663C24.2663 30.6667 23.9997 30.9333 23.9997 31.3333V44C23.9997 48.4 27.5997 52 31.9997 52C36.3997 52 39.9997 48.4 39.9997 44V31.3333C39.9997 30.9333 39.733 30.6667 39.333 30.6667ZM9.99967 26.6667H19.0663C18.133 27.7333 17.5997 29.2 17.4663 30.6667H10.133C9.59967 30.6667 9.33301 30.9333 9.33301 31.3333V40C9.33301 43.7333 12.2663 46.6667 15.9997 46.6667C16.533 46.6667 17.0663 46.6667 17.5997 46.5333C17.8663 47.8667 18.2663 49.2 18.7997 50.4C17.8663 50.5333 16.933 50.6667 15.9997 50.6667C10.133 50.6667 5.33301 45.8667 5.33301 40V31.3333C5.33301 28.8 7.46634 26.6667 9.99967 26.6667ZM44.933 26.6667H53.9997C56.533 26.6667 58.6663 28.8 58.6663 31.3333V40C58.6663 45.8667 53.8663 50.6667 47.9997 50.6667C47.0663 50.6667 46.133 50.5333 45.1997 50.2667C45.733 49.0667 46.133 47.7333 46.3997 46.4C46.933 46.6667 47.4663 46.6667 47.9997 46.6667C51.733 46.6667 54.6663 43.7333 54.6663 40V31.3333C54.6663 30.9333 54.3997 30.6667 53.9997 30.6667H46.6663C46.533 29.2 45.8663 27.7333 44.933 26.6667ZM31.9997 8C36.3997 8 39.9997 11.6 39.9997 16C39.9997 20.4 36.3997 24 31.9997 24C27.5997 24 23.9997 20.4 23.9997 16C23.9997 11.6 27.5997 8 31.9997 8ZM49.333 10.6667C53.0663 10.6667 55.9997 13.6 55.9997 17.3333C55.9997 21.0667 53.0663 24 49.333 24C45.5997 24 42.6663 21.0667 42.6663 17.3333C42.6663 13.6 45.5997 10.6667 49.333 10.6667ZM14.6663 10.6667C18.3997 10.6667 21.333 13.6 21.333 17.3333C21.333 21.0667 18.3997 24 14.6663 24C10.933 24 7.99967 21.0667 7.99967 17.3333C7.99967 13.6 10.933 10.6667 14.6663 10.6667ZM31.9997 12C29.733 12 27.9997 13.7333 27.9997 16C27.9997 18.2667 29.733 20 31.9997 20C34.2663 20 35.9997 18.2667 35.9997 16C35.9997 13.7333 34.2663 12 31.9997 12ZM49.333 14.6667C47.8663 14.6667 46.6663 15.8667 46.6663 17.3333C46.6663 18.8 47.8663 20 49.333 20C50.7997 20 51.9997 18.8 51.9997 17.3333C51.9997 15.8667 50.7997 14.6667 49.333 14.6667ZM14.6663 14.6667C13.1997 14.6667 11.9997 15.8667 11.9997 17.3333C11.9997 18.8 13.1997 20 14.6663 20C16.133 20 17.333 18.8 17.333 17.3333C17.333 15.8667 16.133 14.6667 14.6663 14.6667Z" fill="black"/>
</svg>
