<svg width="48" height="48" viewBox="0 0 48 48" fill="none" xmlns="http://www.w3.org/2000/svg">
<path d="M23.9997 35.5C25.6566 35.5 26.9997 36.8431 26.9997 38.5C26.9997 40.1569 25.6566 41.5 23.9997 41.5C22.3429 41.5 20.9997 40.1569 20.9997 38.5C20.9997 36.8431 22.3429 35.5 23.9997 35.5ZM23.9997 25.5C25.6566 25.5 26.9997 26.8431 26.9997 28.5C26.9997 30.1569 25.6566 31.5 23.9997 31.5C22.3429 31.5 20.9997 30.1569 20.9997 28.5C20.9997 26.8431 22.3429 25.5 23.9997 25.5ZM33.9917 25.5C35.6485 25.5 36.9917 26.8431 36.9917 28.5C36.9917 30.1569 35.6485 31.5 33.9917 31.5C32.3348 31.5 30.9917 30.1569 30.9917 28.5C30.9917 26.8431 32.3348 25.5 33.9917 25.5ZM14.0078 25.5C15.6647 25.5 17.0078 26.8431 17.0078 28.5C17.0078 30.1569 15.6647 31.5 14.0078 31.5C12.351 31.5 11.0078 30.1569 11.0078 28.5C11.0078 26.8431 12.351 25.5 14.0078 25.5ZM23.9997 15.5C25.6566 15.5 26.9997 16.8431 26.9997 18.5C26.9997 20.1569 25.6566 21.5 23.9997 21.5C22.3429 21.5 20.9997 20.1569 20.9997 18.5C20.9997 16.8431 22.3429 15.5 23.9997 15.5ZM33.9917 15.5C35.6485 15.5 36.9917 16.8431 36.9917 18.5C36.9917 20.1569 35.6485 21.5 33.9917 21.5C32.3348 21.5 30.9917 20.1569 30.9917 18.5C30.9917 16.8431 32.3348 15.5 33.9917 15.5ZM14.0078 15.5C15.6647 15.5 17.0078 16.8431 17.0078 18.5C17.0078 20.1569 15.6647 21.5 14.0078 21.5C12.351 21.5 11.0078 20.1569 11.0078 18.5C11.0078 16.8431 12.351 15.5 14.0078 15.5ZM23.9997 5.5C25.6566 5.5 26.9997 6.84315 26.9997 8.5C26.9997 10.1569 25.6566 11.5 23.9997 11.5C22.3429 11.5 20.9997 10.1569 20.9997 8.5C20.9997 6.84315 22.3429 5.5 23.9997 5.5ZM33.9917 5.5C35.6485 5.5 36.9917 6.84315 36.9917 8.5C36.9917 10.1569 35.6485 11.5 33.9917 11.5C32.3348 11.5 30.9917 10.1569 30.9917 8.5C30.9917 6.84315 32.3348 5.5 33.9917 5.5ZM14.0078 5.5C15.6647 5.5 17.0078 6.84315 17.0078 8.5C17.0078 10.1569 15.6647 11.5 14.0078 11.5C12.351 11.5 11.0078 10.1569 11.0078 8.5C11.0078 6.84315 12.351 5.5 14.0078 5.5Z" fill="white"/>
</svg>
