<svg width="48" height="48" viewBox="0 0 48 48" fill="none" xmlns="http://www.w3.org/2000/svg">
<path d="M43.5604 6.56066C44.1462 5.97488 44.1462 5.02512 43.5604 4.43934C42.9746 3.85355 42.025 3.85355 41.4392 4.43934L37.4152 8.46321C34.0964 6.10525 29.4644 6.41385 26.4894 9.389L24.3532 11.525C22.9864 12.8919 22.9864 15.108 24.3532 16.4748L31.5248 23.6464C32.8918 25.0132 35.1078 25.0132 36.4746 23.6464L38.6106 21.5104C41.5858 18.5352 41.8944 13.9034 39.5366 10.5846L43.5604 6.56066ZM36.3888 11.5103L36.4344 11.556L36.4392 11.5607L36.4438 11.5653L36.4894 11.6108C38.6372 13.7587 38.6372 17.2411 36.4894 19.389L34.3532 21.525C34.158 21.7204 33.8414 21.7204 33.6462 21.525L26.4746 14.3535C26.2794 14.1582 26.2794 13.8416 26.4746 13.6464L28.6106 11.5103C30.7586 9.36244 34.241 9.36244 36.3888 11.5103Z" fill="white"/>
<path d="M21.5606 22.5606C22.1464 21.9748 22.1464 21.0252 21.5606 20.4394C20.9748 19.8535 20.0252 19.8535 19.4393 20.4394L16 23.8786L15.0607 22.9394C14.4749 22.3536 13.5252 22.3536 12.9394 22.9394L9.38911 26.4896C6.41401 29.4648 6.10539 34.0966 8.46325 37.4154L4.43933 41.4394C3.85356 42.0252 3.85356 42.9748 4.43933 43.5606C5.02511 44.1464 5.97487 44.1464 6.56065 43.5606L10.5846 39.5368C13.9034 41.8946 18.5353 41.586 21.5104 38.611L25.0606 35.0606C25.6464 34.4748 25.6464 33.5252 25.0606 32.9394L24.1214 32L27.5606 28.5606C28.1464 27.9748 28.1464 27.0252 27.5606 26.4394C26.9748 25.8536 26.0252 25.8536 25.4394 26.4394L22 29.8786L18.1213 26L21.5606 22.5606ZM14.9326 27.054L14.9393 27.0606L14.9461 27.0674L20.9328 33.054L20.9394 33.0606L20.946 33.0672L21.8788 34L19.3891 36.4896C17.2412 38.6374 13.7588 38.6374 11.611 36.4896L11.5104 36.389C9.36255 34.2412 9.36255 30.7588 11.5104 28.611L14 26.1214L14.9326 27.054Z" fill="white"/>
</svg>
