<svg width="48" height="48" viewBox="0 0 48 48" fill="none" xmlns="http://www.w3.org/2000/svg">
<path d="M44 23.2988L32.4 23.2988C29.34 23.2988 27.24 20.9789 27.24 18.1388L27.24 11.6988C27.24 8.85887 29.34 6.53878 32.4 6.53878L38.84 6.53879C41.68 6.53879 44 8.85887 44 11.6988L44 23.2988Z" stroke="#1463FF" stroke-width="3" stroke-linecap="round" stroke-linejoin="round"/>
<path d="M44 23.2995C44 35.3996 41.7399 37.3995 34.9399 41.4395" stroke="#1463FF" stroke-width="3" stroke-linecap="round" stroke-linejoin="round"/>
<path d="M20.7402 23.2988L9.1402 23.2988C6.0802 23.2988 3.9802 20.9789 3.9802 18.1388L3.9802 11.6988C3.9802 8.85887 6.0802 6.53878 9.1402 6.53878L15.5802 6.53879C18.4203 6.53879 20.7402 8.85887 20.7402 11.6988L20.7402 23.2988Z" stroke="#1463FF" stroke-width="3" stroke-linecap="round" stroke-linejoin="round"/>
<path d="M20.7402 23.2995C20.7402 35.3996 18.4803 37.3995 11.6802 41.4395" stroke="#1463FF" stroke-width="3" stroke-linecap="round" stroke-linejoin="round"/>
</svg>
