<svg width="48" height="48" viewBox="0 0 48 48" fill="none" xmlns="http://www.w3.org/2000/svg">
<path d="M12.5 6.00098H35.5C38.9661 6.00098 41.7985 8.71389 41.9897 12.1321L42 12.501V35.501C42 38.967 39.2871 41.7995 35.8688 41.9907L35.5 42.001H12.5C9.03394 42.001 6.20151 39.2881 6.01029 35.8698L6 35.501V12.501C6 9.03491 8.71291 6.20248 12.1312 6.01127L12.5 6.00098H35.5H12.5ZM9 29.001V35.501C9 37.3373 10.4142 38.8434 12.2129 38.9894L12.5 39.001H35.5C37.3363 39.001 38.8424 37.5868 38.9884 35.788L39 35.501V29.001H31.35C30.6808 32.2975 27.8494 34.809 24.4006 34.9905L24 35.001C20.5059 35.001 17.57 32.6117 16.7367 29.3778L16.65 29.001H9V35.501V29.001ZM35.5 9.00098H12.5C10.6637 9.00098 9.15762 10.4152 9.0116 12.2139L9 12.501V26.001H18C18.7594 26.001 19.387 26.5653 19.4863 27.2974L19.5 27.501C19.5 29.9863 21.5147 32.001 24 32.001C26.3817 32.001 28.3313 30.1507 28.4896 27.8091L28.5 27.501C28.5 26.7416 29.0643 26.114 29.7965 26.0147L30 26.001H39V12.501C39 10.6646 37.5858 9.15859 35.7871 9.01258L35.5 9.00098Z" fill="white"/>
</svg>
