<svg width="48" height="48" viewBox="0 0 48 48" fill="none" xmlns="http://www.w3.org/2000/svg">
<path d="M24 4C35.0457 4 44 12.9543 44 24C44 35.0457 35.0457 44 24 44C20.7634 44 17.6356 43.2292 14.8257 41.776L7.17408 43.9107C5.84425 44.282 4.46516 43.505 4.09381 42.1752C3.97093 41.7351 3.97099 41.2698 4.0939 40.8301L6.22922 33.1845C4.77273 30.3719 4 27.2405 4 24C4 12.9543 12.9543 4 24 4ZM24 7C14.6112 7 7 14.6112 7 24C7 26.9392 7.74555 29.7668 9.14607 32.2749L9.44735 32.8145L7.22192 40.7828L15.1951 38.5584L15.7342 38.859C18.2401 40.2563 21.0644 41 24 41C33.3888 41 41 33.3888 41 24C41 14.6112 33.3888 7 24 7ZM17.5 26H26.4965C27.325 26 27.9965 26.6716 27.9965 27.5C27.9965 28.2594 27.4322 28.887 26.7001 28.9863L26.4965 29H17.5C16.6716 29 16 28.3284 16 27.5C16 26.7406 16.5643 26.113 17.2965 26.0137L17.5 26H26.4965H17.5ZM17.5 19H30.509C31.3374 19 32.009 19.6716 32.009 20.5C32.009 21.2594 31.4447 21.887 30.7125 21.9863L30.509 22H17.5C16.6716 22 16 21.3284 16 20.5C16 19.7406 16.5643 19.113 17.2965 19.0137L17.5 19H30.509H17.5Z" fill="white"/>
</svg>
