<svg width="48" height="48" viewBox="0 0 48 48" fill="none" xmlns="http://www.w3.org/2000/svg">
<path d="M27.5 9C31.0899 9 34 11.9101 34 15.5V15.846L41.7279 11.21C42.7277 10.6097 44 11.3299 44 12.496V35.5C44 36.6659 42.728 37.3861 41.7283 36.7862L34 32.15V32.5C34 36.0899 31.0899 39 27.5 39H10.5C6.91015 39 4 36.0899 4 32.5V15.5C4 11.9101 6.91015 9 10.5 9H27.5ZM27.5 12H10.5C8.567 12 7 13.567 7 15.5V32.5C7 34.433 8.567 36 10.5 36H27.5C29.433 36 31 34.433 31 32.5V15.5C31 13.567 29.433 12 27.5 12ZM41 15.1462L34 19.349V28.6507L41 32.8507V15.1462Z" fill="white"/>
</svg>
