<svg width="49" height="48" viewBox="0 0 49 48" fill="none" xmlns="http://www.w3.org/2000/svg">
<path d="M21 8.5C21.8284 8.5 22.5 9.17157 22.5 10V26H38.5C39.2594 26 39.887 26.5643 39.9863 27.2965L40 27.5C40 37.4411 31.9411 44.5 22 44.5C12.0589 44.5 4 36.4411 4 26.5C4 16.5589 11.0589 8.5 21 8.5ZM19.5 11.574L19.0822 11.6215C11.7036 12.5631 7 18.8655 7 26.5C7 34.7843 13.7157 41.5 22 41.5C29.6345 41.5 35.9369 36.7964 36.8785 29.4178L36.924 29H21C20.2406 29 19.613 28.4357 19.5137 27.7035L19.5 27.5V11.574ZM27 3.5C36.9411 3.5 45 11.5589 45 21.5C45 22.3284 44.3284 23 43.5 23H27C26.1716 23 25.5 22.3284 25.5 21.5V5C25.5 4.17157 26.1716 3.5 27 3.5ZM28.5 6.574V20H41.924L41.8785 19.5822C41.017 12.8316 35.6684 7.48296 28.9178 6.62145L28.5 6.574Z" fill="white"/>
</svg>
