<svg width="48" height="48" viewBox="0 0 48 48" fill="none" xmlns="http://www.w3.org/2000/svg">
<path d="M10.5078 28.0006L32.4843 28.003C32.6923 28.3462 32.9469 28.665 33.2459 28.9488L34.6831 30.313C34.6013 30.6308 34.4947 30.9492 34.3633 31.2684C34.1183 31.0992 33.8241 31.0006 33.5069 31.0006H10.5078C9.67939 31.0006 9.00781 31.6722 9.00781 32.5006V34.3152C9.00781 35.6266 9.57979 36.8726 10.5742 37.7276C13.0903 39.8908 16.8823 41.003 22.0007 41.003C22.5841 41.003 23.1501 40.9884 23.6991 40.9596C23.8625 41.8526 24.2887 42.7018 24.9621 43.378L25.4171 43.8342C24.3341 43.9468 23.1951 44.003 22.0007 44.003C16.2217 44.003 11.7441 42.6898 8.61837 40.0024C6.96113 38.5776 6.00781 36.5008 6.00781 34.3152V32.5006C6.00781 30.0154 8.02253 28.0006 10.5078 28.0006ZM34.0217 24.4908L35.0283 22.117C35.5005 21.0038 36.6313 20.3982 37.7403 20.6294L37.9773 20.6918L39.2379 21.0946C40.4877 21.494 41.4449 22.5646 41.7541 23.9092C42.4887 27.1044 41.6073 30.9946 39.1101 35.58C36.6163 40.1586 33.8833 42.9114 30.9105 43.8386C29.7563 44.1988 28.5165 43.9372 27.5837 43.1542L27.3373 42.9278L26.3799 41.9666C25.5503 41.1336 25.3793 39.816 25.9357 38.785L26.0769 38.5526L27.5199 36.4326C28.0877 35.5986 29.0589 35.2038 29.9947 35.4032L30.2487 35.4724L32.9125 36.3608C33.9757 35.5564 34.8619 34.5438 35.5717 33.3232C36.1799 32.2768 36.5779 31.2164 36.7653 30.1418L36.8415 29.6034L34.6235 27.4982C33.8929 26.8046 33.6275 25.7248 33.9261 24.7528L34.0217 24.4908L35.0283 22.117L34.0217 24.4908ZM22.0007 4.01001C27.5235 4.01001 32.0007 8.48717 32.0007 14.01C32.0007 19.5329 27.5235 24.01 22.0007 24.01C16.4779 24.01 12.0007 19.5329 12.0007 14.01C12.0007 8.48717 16.4779 4.01001 22.0007 4.01001ZM22.0007 7.01001C18.1347 7.01001 15.0007 10.144 15.0007 14.01C15.0007 17.876 18.1347 21.01 22.0007 21.01C25.8667 21.01 29.0007 17.876 29.0007 14.01C29.0007 10.144 25.8667 7.01001 22.0007 7.01001Z" fill="white"/>
</svg>
