<svg width="48" height="48" viewBox="0 0 48 48" fill="none" xmlns="http://www.w3.org/2000/svg">
<path d="M5.99892 15.0225C4.19536 16.1777 3 18.1993 3 20.5V32.5C3 38.299 7.70102 43 13.5 43H31.5C33.8008 43 35.8224 41.8046 36.9774 40.001L13.5 40C9.35786 40 6 36.6422 6 32.5L5.99892 15.0225ZM37.5 8H14.5C11.0339 8 8.2015 10.7129 8.01028 14.1312L8 14.5V31.5C8 34.966 10.7129 37.7984 14.1312 37.9898L14.5 38H37.5C40.966 38 43.7984 35.287 43.9898 31.8688L44 31.5V14.5C44 11.0339 41.287 8.2015 37.8688 8.01028L37.5 8ZM11 17.798L25.3014 25.3274C25.6762 25.5246 26.1138 25.5528 26.5064 25.412L26.6986 25.3274L41 17.8V31.5C41 33.3364 39.5858 34.8424 37.787 34.9884L37.5 35H14.5C12.6637 35 11.1576 33.5858 11.0116 31.787L11 31.5V17.798ZM14.5 11H37.5C39.3364 11 40.8424 12.4142 40.9884 14.2129L40.996 14.412L26 22.305L11.0011 14.4097C11.0491 12.5184 12.5972 11 14.5 11Z" fill="white"/>
</svg>
