<svg width="48" height="48" viewBox="0 0 48 48" fill="none" xmlns="http://www.w3.org/2000/svg">
<path d="M22.8176 21.8933C26.2624 25.338 26.6227 30.6992 23.8987 34.5449L23.616 34.9243L32.0507 43.361L32.2005 43.5345C32.6497 44.1399 32.5998 44.999 32.0507 45.548C31.5017 46.0971 30.6426 46.147 30.0372 45.6978L29.8637 45.548L21.3509 37.0352C17.5199 39.6182 12.275 39.2149 8.88544 35.8254C5.03819 31.9781 5.03819 25.7405 8.88544 21.8933C12.7327 18.046 18.9703 18.046 22.8176 21.8933ZM26.2578 4.00098C27.4509 4.00098 28.5951 4.47476 29.439 5.31816L35.0627 10.939L40.678 16.5627C41.5205 17.4064 41.9936 18.55 41.9936 19.7423V39.501C41.9936 41.9863 39.9789 44.001 37.4936 44.001L34.475 44.0021C34.4001 43.4162 34.1783 42.8437 33.8066 42.3427L33.5646 42.0541L32.5111 40.999L37.4936 41.001C38.3221 41.001 38.9936 40.3294 38.9936 39.501L38.992 20.007L30.5 20.0088C28.1183 20.0088 26.1687 18.1584 26.0104 15.8169L26 15.5088V7.00098H14.5C13.6716 7.00098 13 7.67255 13 8.50098L12.9993 17.3433C11.9616 17.5895 10.9506 17.9773 9.99712 18.5067L10 8.50098C10 6.0157 12.0147 4.00098 14.5 4.00098H26.2578ZM11.0724 24.0803C8.43304 26.7197 8.43304 30.999 11.0724 33.6384C13.7119 36.2778 17.9912 36.2778 20.6306 33.6384C23.27 30.999 23.27 26.7197 20.6306 24.0803C17.9912 21.4409 13.7119 21.4409 11.0724 24.0803ZM29 9.12098V15.5088C29 16.2681 29.5643 16.8957 30.2965 16.9951L30.5 17.0088L36.882 17.007L29 9.12098Z" fill="white"/>
</svg>
