<svg width="48" height="48" viewBox="0 0 48 48" fill="none" xmlns="http://www.w3.org/2000/svg">
<path fill-rule="evenodd" clip-rule="evenodd" d="M12.75 11.625C12.1264 11.625 11.625 12.1264 11.625 12.75V35.25C11.625 35.8736 12.1264 36.375 12.75 36.375H17.25C17.8736 36.375 18.375 35.8736 18.375 35.25V12.75C18.375 12.1264 17.8736 11.625 17.25 11.625H12.75ZM13.875 34.125V13.875H16.125V34.125H13.875Z" fill="white"/>
<path fill-rule="evenodd" clip-rule="evenodd" d="M20.625 12.75C20.625 12.1264 21.1264 11.625 21.75 11.625H26.25C26.8736 11.625 27.375 12.1264 27.375 12.75V21.75C27.375 22.3736 26.8736 22.875 26.25 22.875H21.75C21.1264 22.875 20.625 22.3736 20.625 21.75V12.75ZM22.875 13.875V20.625H25.125V13.875H22.875Z" fill="white"/>
<path fill-rule="evenodd" clip-rule="evenodd" d="M30.75 11.625C30.1264 11.625 29.625 12.1264 29.625 12.75V28.5C29.625 29.1236 30.1264 29.625 30.75 29.625H35.25C35.8736 29.625 36.375 29.1236 36.375 28.5V12.75C36.375 12.1264 35.8736 11.625 35.25 11.625H30.75ZM34.125 27.375H31.875V13.875H34.125V27.375Z" fill="white"/>
<path fill-rule="evenodd" clip-rule="evenodd" d="M11.625 6C8.52 6 6 8.52 6 11.625V36.375C6 39.48 8.52 42 11.625 42H36.375C39.48 42 42 39.48 42 36.375V11.625C42 8.52 39.48 6 36.375 6H11.625ZM8.25 11.625C8.25 9.76071 9.76071 8.25 11.625 8.25H36.375C38.2393 8.25 39.75 9.76071 39.75 11.625V36.375C39.75 38.2393 38.2393 39.75 36.375 39.75H11.625C9.76071 39.75 8.25 38.2393 8.25 36.375V11.625Z" fill="white"/>
</svg>
