<svg height="353" width="627" xmlns="http://www.w3.org/2000/svg" xmlns:xlink="http://www.w3.org/1999/xlink"><mask id="a" fill="#fff"><path d="m8.535 1.391-6.926 4c-.957.551-.958 1.448 0 1.999l6.926 3.998c.958.557 2.509.557 3.465 0l6.928-3.998c.956-.551.956-1.448 0-1.999l-6.928-4c-.479-.278-1.105-.415-1.732-.415s-1.254.137-1.733.415zm-1.732 5 3.465-2.001 3.463 2.001-3.463 1.999zm13.858 1.999-6.93 4c-.956.554-.956 1.447 0 1.999l6.93 4.001c.956.553 2.507.553 3.463 0l6.926-4.001c.958-.552.958-1.445 0-1.999l-6.926-4c-.479-.277-1.104-.414-1.731-.414s-1.255.137-1.732.414zm-1.733 4.999 3.463-2.001 3.467 2.001-3.467 1.999zm13.856 1.999-6.926 4.002c-.958.555-.958 1.449 0 2.001l6.926 4c.956.551 2.509.551 3.465 0l6.928-4c.956-.552.956-1.446 0-2.001l-6.928-4.002c-.479-.275-1.105-.412-1.732-.412s-1.254.137-1.733.412zm-1.734 5.003 3.465-2.001 3.465 2.001-3.465 1.999zm-22.515-5.003-6.926 4.002c-.958.555-.958 1.449 0 2.001l6.926 4c.958.551 2.509.551 3.465 0l6.928-4c.956-.552.956-1.446 0-2.001l-6.928-4.002c-.479-.275-1.105-.412-1.732-.412s-1.254.137-1.733.412zm-1.732 5.003 3.465-2.001 3.463 2.001-3.463 1.999zm13.858 1.999-6.93 4c-.956.553-.956 1.448 0 2.001l6.93 3.998c.956.555 2.507.555 3.463 0l6.926-3.998c.958-.553.958-1.448 0-2.001l-6.926-4c-.479-.276-1.104-.414-1.731-.414s-1.255.138-1.732.414zm-1.733 5 3.463-1.999 3.467 1.999-3.467 2.001zm-10.393 2.001-6.926 3.998c-.958.554-.958 1.447 0 2.001l6.926 4.001c.958.553 2.509.553 3.465 0l6.928-4.001c.956-.554.956-1.447 0-2.001l-6.928-3.998c-.479-.277-1.105-.414-1.732-.414s-1.254.137-1.733.414zm-1.732 4.997 3.465-1.999 3.463 1.999-3.463 2.001z" fill="#fff" fill-rule="evenodd"/></mask><mask id="b" fill="#fff"><path d="m28.625 1.354-27.712 16c-.958.555-.958 1.448 0 2 .956.554 2.505.554 3.463 0l27.712-15.999c.956-.551.956-1.445 0-2.001-.479-.276-1.104-.413-1.731-.413-.628 0-1.255.137-1.732.413zm6.928 4-27.714 16.002c-.954.553-.954 1.448 0 1.999.956.553 2.509.553 3.465 0l27.712-16c.958-.551.958-1.447 0-2.001-.479-.276-1.104-.414-1.731-.414-.628 0-1.255.138-1.732.414zm6.928 4-27.712 16.002c-.958.553-.958 1.448 0 1.999.956.553 2.507.553 3.463 0l27.714-16c.956-.551.956-1.447 0-2.001-.479-.276-1.106-.414-1.733-.414-.628 0-1.255.138-1.732.414zm-3.465 10-17.319 10.002c-.958.551-.958 1.448 0 1.999.956.553 2.507.553 3.463 0l17.321-9.999c.956-.555.956-1.448 0-2.002-.479-.275-1.104-.413-1.731-.413-.628 0-1.255.138-1.734.413z" fill="#fff" fill-rule="evenodd"/></mask><mask id="c" fill="#fff"><path d="m35.526 1.355-13.858 8.002c-.954.551-.954 1.444 0 1.999.958.553 2.509.553 3.465 0l13.856-8c.958-.553.958-1.449 0-2.001-.479-.276-1.104-.414-1.731-.414-.628 0-1.255.138-1.732.414zm5.197 10.999c-1.437.83-1.437 2.174 0 3.002 1.433.826 3.759.826 5.194 0 1.435-.828 1.435-2.172 0-3.002-.717-.412-1.657-.618-2.597-.618s-1.882.206-2.597.618zm13.854 0-13.854 8.001c-.958.554-.958 1.448 0 2.001.956.552 2.506.552 3.463 0l13.856-8c.956-.554.956-1.447 0-2.002-.479-.275-1.106-.412-1.734-.412-.627 0-1.254.137-1.731.412zm-53.693 1.003c-.956.551-.956 1.444 0 1.999l5.197 3-5.197 3.001c-.956.551-.956 1.446 0 1.999.956.551 2.507.551 3.465 0l5.195-3.001 5.198 3.001c.956.551 2.505.551 3.463 0 .956-.553.956-1.448 0-1.999l-5.196-3.001 5.196-3c.956-.555.956-1.448 0-1.999-.479-.276-1.106-.416-1.731-.416-.628 0-1.255.14-1.732.416l-5.198 2.998-5.195-2.998c-.478-.277-1.105-.416-1.732-.416s-1.255.139-1.733.416zm51.961 5.999c-1.435.826-1.435 2.171 0 3 1.437.828 3.763.828 5.197 0 1.435-.829 1.435-2.174 0-3-.718-.414-1.658-.622-2.598-.622s-1.881.208-2.599.622zm-26.698 4.343v4.242h-7.347c-1.354 0-2.449.635-2.449 1.414 0 .781 1.095 1.415 2.449 1.415h7.347v4.242c0 .781 1.097 1.414 2.451 1.414 1.352 0 2.449-.633 2.449-1.414v-4.242h7.349c1.352 0 2.449-.634 2.449-1.415 0-.779-1.097-1.414-2.449-1.414h-7.349v-4.242c0-.781-1.097-1.415-2.449-1.415-1.354 0-2.451.634-2.451 1.415z" fill="#fff" fill-rule="evenodd"/></mask><mask id="d" fill="#fff"><path d="m16.385.907c-1.352 0-2.449.633-2.449 1.413 0 .783 1.097 1.415 2.449 1.415h22.044v12.727c0 .783 1.097 1.415 2.451 1.415s2.449-.632 2.449-1.415v-14.142c0-.78-1.095-1.413-2.449-1.413zm-16.182 9.343v14.143c0 .781 1.095 1.412 2.449 1.412h24.495c1.352 0 2.449-.631 2.449-1.412 0-.783-1.097-1.417-2.449-1.417h-22.046v-12.726c0-.781-1.097-1.416-2.449-1.416-1.354 0-2.449.635-2.449 1.416z" fill="#fff" fill-rule="evenodd"/></mask><g fill="none" fill-rule="evenodd"><path d="m.424 352.769h626v-352h-626z"/><path d="m191.854 150.294 187.226 108.096m-121.264-74.083-187.227 108.095m484.051-201.247-230.997 133.367" stroke="#425066" stroke-width="2"/><path d="m74.59 292.402a4 4 0 1 0 -8.001 0 4 4 0 0 0 8 0m484.051-201.247a4 4 0 1 0 -8 0 4 4 0 0 0 8 0" fill="#425066"/><path d="m486.458 331.683-57.362-33.118a15.996 15.996 0 0 0 -16 0l-75.139 43.381c-11.478 6.627-30.09 6.627-41.568 0l-83.139-48-34.579-20.035-83.14-47.999c-11.477-6.628-11.477-17.374.001-24l83.14-48 34.641-20 83.136-48c11.481-6.628 30.092-6.628 41.571 0l83.136 48 34.643 20 83.138 48c11.478 6.625 11.478 17.371 0 24l-83.139 48" stroke="#ff6f00" stroke-width="2"/><path d="m488.368 331.683a4 4 0 1 0 -8 0 4 4 0 0 0 8 0m-28.57-57.773a4 4 0 1 0 -8 .001 4 4 0 0 0 8 0" fill="#ff6f00"/><path d="m244.596 152.322c-.341 1.487-1.487 2.926-3.468 4.068-2.881 1.663-6.837 2.318-10.574 1.976v-13.94c.102-.01.199-.03.301-.038l-45.091-26.033-83.138 48c-5.699 3.29-8.549 7.597-8.589 11.907h-.018v15.738h.012c-.163 4.46 2.699 8.95 8.594 12.354l83.139 48 44.984-25.97c.359 1.464 1.499 2.877 3.452 4.005 4.783 2.76 12.538 2.76 17.321 0 2.394-1.381 3.59-3.196 3.587-5.006v-13.065l34.579-19.964v-16l-45.091-26.033zm149.074 86.136v-13.03c.017-1.823-1.177-3.648-3.584-5.037-4.783-2.762-12.538-2.762-17.32 0-1.953 1.127-3.095 2.542-3.453 4.005l-45.045-26.004-45.045 26.005v13.988c-3.68.3-7.55-.361-10.38-1.993-1.953-1.129-3.095-2.542-3.453-4.007l-45.045 26.007v16l83.137 47.998c11.48 6.629 30.09 6.629 41.57 0l83.138-48v-16zm-48.697-188.15c-11.479-6.628-30.09-6.628-41.568 0l-83.139 48v16l34.459 19.896v13.208h.003c.03 1.788 1.221 3.57 3.582 4.931 4.783 2.761 12.537 2.761 17.32 0 1.98-1.142 3.127-2.58 3.468-4.067l45.09 26.031 44.984-25.972v-13.985c3.681-.3 7.55.36 10.381 1.993 1.952 1.128 3.094 2.542 3.452 4.007l45.107-26.042v-16l-83.139-47.999zm209.661 128.312h-.001c.117-4.428-2.748-8.877-8.603-12.257l-83.136-48-45.108 26.043c-.357-1.466-1.5-2.88-3.451-4.007-4.783-2.76-12.537-2.76-17.32 0-2.503 1.446-3.684 3.36-3.567 5.25h-.017v12.82l-34.461 19.895v16l45 25.98c.375-1.444 1.512-2.832 3.435-3.946 2.938-1.694 6.993-2.343 10.792-1.96v13.906c-.101.009-.202.03-.303.04l44.999 25.979 83.137-48c5.797-3.347 8.658-7.744 8.598-12.13h.006z" fill="#ced0d1"/><path d="m244.598 152.322c-.341 1.487-1.488 2.926-3.468 4.068-4.783 2.762-12.537 2.762-17.32 0-4.783-2.76-4.783-7.238 0-10 1.978-1.141 4.47-1.804 7.046-2.002l-45.09-26.033-83.14 48c-11.477 6.628-11.477 17.373 0 24l83.139 48 44.983-25.97c.36 1.464 1.5 2.877 3.454 4.005 4.783 2.76 12.538 2.76 17.32 0 4.783-2.76 4.783-7.24 0-10-1.952-1.128-4.403-1.786-6.941-1.993l45.108-26.042zm58.947-101.967-83.14 48 45.092 26.033c-2.576.196-5.066.861-7.048 2.002-4.78 2.763-4.78 7.238 0 10 4.783 2.763 12.538 2.763 17.322 0 1.98-1.142 3.127-2.581 3.466-4.067l45.091 26.032 44.986-25.972c-2.54-.207-4.99-.866-6.94-1.993-4.784-2.762-4.784-7.238 0-10 4.781-2.762 12.536-2.762 17.318 0 1.955 1.127 3.096 2.541 3.455 4.007l45.105-26.042-83.139-48c-11.478-6.627-30.089-6.627-41.568 0m114.242 94.042c-.358-1.466-1.5-2.88-3.452-4.007-4.783-2.762-12.538-2.762-17.32 0-4.785 2.762-4.785 7.238 0 10 1.952 1.127 4.4 1.786 6.94 1.993l-44.985 25.972 45 25.98c.375-1.444 1.51-2.834 3.436-3.946 4.782-2.761 12.536-2.761 17.32 0 4.784 2.763 4.784 7.239 0 10-1.924 1.112-4.334 1.769-6.835 1.986l45 25.979 83.14-48c11.48-6.627 11.48-17.372 0-24l-83.14-47.999zm-45.022 75.993c-1.952 1.127-3.095 2.541-3.452 4.007l-45.045-26.007-45.045 26.008c2.539.205 4.986.864 6.939 1.992 4.784 2.762 4.784 7.238 0 10-4.783 2.762-12.538 2.762-17.32 0-1.952-1.128-3.095-2.542-3.452-4.007l-45.045 26.007 83.138 48c11.478 6.627 30.091 6.627 41.569 0l83.139-48-45.045-26.008c2.539-.207 4.986-.865 6.939-1.993 4.784-2.76 4.784-7.237 0-10-4.782-2.76-12.538-2.76-17.32 0" fill="#fff"/><g fill="#425066"><path d="m-4.11 44.804h53.004v-48.829h-53.004z" mask="url(#a)" transform="translate(314 238)"/><path d="m-4.806 36.769h56.469v-40.829h-56.469z" mask="url(#b)" transform="translate(436 162)"/><path d="m-4.833 41.426h68.951v-45.485h-68.951z" mask="url(#c)" transform="translate(294 80)"/><path d="m-4.798 30.805h53.127v-34.9h-53.127z" mask="url(#d)" transform="translate(164 165)"/></g></g></svg>